<svg xmlns="http://www.w3.org/2000/svg" width="84" height="91.728" viewBox="0 0 84 91.728"><path d="M30.95-2334.494l-12.293-12.292L6.364-2334.494a3,3,0,0,1-4.243,0,3,3,0,0,1,0-4.243l14.143-14.143a2.994,2.994,0,0,1,2.393-.866,3,3,0,0,1,2.393.866l14.143,14.143a3,3,0,0,1,0,4.243,2.991,2.991,0,0,1-2.122.879A2.989,2.989,0,0,1,30.95-2334.494Z" transform="translate(23.343 2353.757)" fill="#b5dfe0"/><rect width="28" height="6" rx="3" transform="translate(45 17.728) rotate(90)" fill="#b5dfe0"/><rect width="42" height="6" rx="3" transform="translate(63 81.728) rotate(180)" fill="#800020"/><rect width="84" height="6" rx="3" transform="translate(84 91.728) rotate(180)" fill="#800020"/></svg>