<svg xmlns="http://www.w3.org/2000/svg" width="24" height="24" viewBox="0 0 24 24"><path d="M15.233,5.488c-.843-.038-1.1-.046-3.233-.046s-2.389.008-3.232.046c-2.17.1-3.181,1.127-3.279,3.279-.039.844-.048,1.1-.048,3.233s.009,2.389.047,3.233c.1,2.148,1.106,3.18,3.279,3.279.843.038,1.1.047,3.233.047s2.39-.008,3.233-.046c2.17-.1,3.18-1.129,3.279-3.279.038-.844.046-1.1.046-3.233s-.008-2.389-.046-3.232c-.1-2.153-1.111-3.182-3.279-3.281ZM12,16.108A4.108,4.108,0,1,1,16.108,12,4.108,4.108,0,0,1,12,16.108ZM16.271,8.69a.96.96,0,1,1,.96-.96A.96.96,0,0,1,16.271,8.69ZM14.667,12A2.667,2.667,0,1,1,12,9.333,2.667,2.667,0,0,1,14.667,12ZM19,0H5A5,5,0,0,0,0,5V19a5,5,0,0,0,5,5H19a5,5,0,0,0,5-5V5A5,5,0,0,0,19,0Zm.952,15.3c-.132,2.909-1.751,4.521-4.653,4.654-.854.039-1.126.048-3.3.048s-2.444-.009-3.3-.048C5.794,19.819,4.182,18.2,4.048,15.3,4.009,14.445,4,14.173,4,12s.009-2.445.048-3.3C4.182,5.794,5.8,4.181,8.7,4.049,9.556,4.009,9.827,4,12,4s2.445.009,3.3.048c2.908.133,4.523,1.751,4.653,4.653.039.854.048,1.127.048,3.3S19.991,14.445,19.952,15.3Z" fill="#fff"/></svg>